<svg xmlns="http://www.w3.org/2000/svg" xmlns:xlink="http://www.w3.org/1999/xlink" width="1920" height="2224" viewBox="0 0 1920 2224">
  <defs>
    <filter id="Elipse_1" x="1724" y="910" width="173" height="163" filterUnits="userSpaceOnUse">
      <feOffset dy="3" input="SourceAlpha"/>
      <feGaussianBlur stdDeviation="3" result="blur"/>
      <feFlood flood-opacity="0.161"/>
      <feComposite operator="in" in2="blur"/>
    </filter>
    <filter id="Elipse_1-2" x="1724" y="910" width="173" height="163" filterUnits="userSpaceOnUse">
      <feOffset dy="3" input="SourceAlpha"/>
      <feGaussianBlur stdDeviation="3" result="blur-2"/>
      <feFlood flood-opacity="0.161" result="color"/>
      <feComposite operator="out" in="SourceGraphic" in2="blur-2"/>
      <feComposite operator="in" in="color"/>
      <feComposite operator="in" in2="SourceGraphic"/>
    </filter>
    <clipPath id="clip-Web_1920_1">
      <rect width="1920" height="2224"/>
    </clipPath>
  </defs>
  <g id="Web_1920_1" data-name="Web 1920 – 1" clip-path="url(#clip-Web_1920_1)">
    <rect width="1920" height="2224" fill="#fff"/>
    <g id="Retângulo_1" data-name="Retângulo 1" transform="translate(423 177)" fill="#fff" stroke="#707070" stroke-width="1">
      <rect width="579" height="339" stroke="none"/>
      <rect x="0.5" y="0.5" width="578" height="338" fill="none"/>
    </g>
    <g id="Retângulo_2" data-name="Retângulo 2" transform="translate(838 1357)" fill="#fff" stroke="#707070" stroke-width="1">
      <rect width="122" height="524" stroke="none"/>
      <rect x="0.5" y="0.5" width="121" height="523" fill="none"/>
    </g>
    <g data-type="innerShadowGroup">
      <g transform="matrix(1, 0, 0, 1, 0, 0)" filter="url(#Elipse_1)">
        <g id="Elipse_1-3" data-name="Elipse 1" transform="translate(1733 916)" fill="#00d800" stroke="#707070" stroke-width="1">
          <ellipse cx="77.5" cy="72.5" rx="77.5" ry="72.5" stroke="none"/>
          <ellipse cx="77.5" cy="72.5" rx="77" ry="72" fill="none"/>
        </g>
      </g>
      <ellipse id="Elipse_1-4" data-name="Elipse 1" cx="77.5" cy="72.5" rx="77.5" ry="72.5" transform="translate(1733 916)" fill="#00d800"/>
      <g transform="matrix(1, 0, 0, 1, 0, 0)" filter="url(#Elipse_1-2)">
        <ellipse id="Elipse_1-5" data-name="Elipse 1" cx="77.5" cy="72.5" rx="77.5" ry="72.5" transform="translate(1733 916)" fill="#fff"/>
      </g>
      <g id="Elipse_1-6" data-name="Elipse 1" transform="translate(1733 916)" fill="none" stroke="#707070" stroke-width="1">
        <ellipse cx="77.5" cy="72.5" rx="77.5" ry="72.5" stroke="none"/>
        <ellipse cx="77.5" cy="72.5" rx="77" ry="72" fill="none"/>
      </g>
    </g>
  </g>
</svg>
